# xmcd
#
# Track frame offsets: 
#        150
#        16172
#        38315
#        62962
#        81937
#        98240
#        128287
#        154712
#        174640
#        193265
#        206062
#        228147
#        261151
#
# Disc length: 3497 seconds
#
# Revision: 1
# Processed by: cddbd v1.5.2PL0 Copyright (c) Steve Scherf et al.
# Submitted via: ExactAudioCopy v0.99pb4
#
DISCID=a00da70d
DTITLE=Omnibus - Disney Adventures in JAZZ
DYEAR=2009
DGENRE=Jazz
TTITLE0=Zip-A-Dee-Doo-Dah
TTITLE1=When You Wish Upon a Star
TTITLE2=Alice in Wonderland
TTITLE3=Beauty and the Beast
TTITLE4=Disney's Main Street Electrical Parade
TTITLE5=Some Day My Prince Will Come
TTITLE6=A Whole New World
TTITLE7=Whistling Medley Give a Little Whistle Whistle While You Work
TTITLE8=Dance of the Sugar Plum Fairy
TTITLE9=You've Got a Friend in Me
TTITLE10=Turkey in the Straw
TTITLE11=A Dream Is a Wish Your Heart Makes
TTITLE12=Data Track
EXTD=YEAR: 2009
EXTT0=
EXTT1=
EXTT2=
EXTT3=
EXTT4=
EXTT5=
EXTT6=
EXTT7=
EXTT8=
EXTT9=
EXTT10=
EXTT11=
EXTT12=
PLAYORDER=
